<?xml version="1.0" encoding="UTF-8" standalone="no"?>
<svg
   xmlns:dc="http://purl.org/dc/elements/1.1/"
   xmlns:cc="http://creativecommons.org/ns#"
   xmlns:rdf="http://www.w3.org/1999/02/22-rdf-syntax-ns#"
   xmlns:svg="http://www.w3.org/2000/svg"
   xmlns="http://www.w3.org/2000/svg"
   xmlns:sodipodi="http://sodipodi.sourceforge.net/DTD/sodipodi-0.dtd"
   xmlns:inkscape="http://www.inkscape.org/namespaces/inkscape"
   width="76.312553mm"
   height="9.8492765mm"
   viewBox="0 0 76.312549 9.8492764"
   version="1.1"
   id="svg8"
   inkscape:version="1.0.1 (3bc2e813f5, 2020-09-07)"
   sodipodi:docname="logo.svg">
  <defs
     id="defs2" />
  <sodipodi:namedview
     id="base"
     pagecolor="#ffffff"
     bordercolor="#666666"
     borderopacity="1.0"
     inkscape:pageopacity="0.0"
     inkscape:pageshadow="2"
     inkscape:zoom="2.8"
     inkscape:cx="125.25538"
     inkscape:cy="1.5824639"
     inkscape:document-units="mm"
     inkscape:current-layer="layer1"
     inkscape:document-rotation="0"
     showgrid="false"
     inkscape:window-width="1920"
     inkscape:window-height="963"
     inkscape:window-x="0"
     inkscape:window-y="28"
     inkscape:window-maximized="1"
     inkscape:lockguides="true" />
  <metadata
     id="metadata5">
    <rdf:RDF>
      <cc:Work
         rdf:about="">
        <dc:format>image/svg+xml</dc:format>
        <dc:type
           rdf:resource="http://purl.org/dc/dcmitype/StillImage" />
        <dc:title />
      </cc:Work>
    </rdf:RDF>
  </metadata>
  <g
     inkscape:label="Layer 1"
     inkscape:groupmode="layer"
     id="layer1"
     transform="translate(-4.4499774,2.7872148)">
    <g
       aria-label="component"
       id="text12"
       style="font-style:normal;font-variant:normal;font-weight:normal;font-stretch:normal;font-size:11.2889px;line-height:1.25;font-family:'Museo Sans Rounded';-inkscape-font-specification:'Museo Sans Rounded';fill:#ffffff;fill-opacity:1;stroke:#000000;stroke-width:0.265;stroke-linecap:round;stroke-linejoin:round;stroke-miterlimit:4;stroke-dasharray:none;stroke-opacity:1">
      <path
         d="m 12.307021,1.7931119 c 0,1.6707573 1.219201,3.0141364 3.127025,3.0141364 0.993423,0 1.693335,-0.4064004 2.043291,-0.6660451 0.225778,-0.1580446 0.259645,-0.3838226 0.124178,-0.6321784 L 17.488626,3.2945357 C 17.34187,3.0236021 17.127381,2.9897354 16.845158,3.14778 c -0.270933,0.1919113 -0.722489,0.4402671 -1.286934,0.4402671 -1.106312,0 -1.794935,-0.8353786 -1.794935,-1.8062241 0,-0.98213429 0.688623,-1.78364622 1.749779,-1.78364622 0.496712,0 0.880534,0.19191131 1.117601,0.34995592 0.270934,0.1354668 0.462845,0.1354668 0.632179,-0.12417791 l 0.146756,-0.22577801 c 0.158044,-0.2483558 0.146755,-0.48542271 -0.09031,-0.64346732 -0.338667,-0.2370669 -0.959556,-0.57573396 -1.885246,-0.57573396 -1.907824,0 -3.127025,1.37724589 -3.127025,3.0141364 z"
         style="font-style:normal;font-variant:normal;font-weight:normal;font-stretch:normal;font-size:11.2889px;font-family:'Museo Sans Rounded';-inkscape-font-specification:'Museo Sans Rounded';fill:#ffffff;fill-opacity:1;stroke:#000000;stroke-width:0.265;stroke-linecap:round;stroke-linejoin:round;stroke-miterlimit:4;stroke-dasharray:none;stroke-opacity:1"
         id="path836" />
      <path
         d="m 18.222385,1.7931119 c 0,1.7723574 1.411112,3.0141364 3.160892,3.0141364 1.749779,0 3.172181,-1.241779 3.172181,-3.0141364 0,-1.76106841 -1.422402,-3.0141364 -3.172181,-3.0141364 -1.74978,0 -3.160892,1.25306799 -3.160892,3.0141364 z m 1.456268,0 c 0,-1.06115659 0.767645,-1.79493512 1.704624,-1.79493512 0.936979,0 1.715913,0.73377853 1.715913,1.79493512 0,1.0724456 -0.778934,1.7949352 -1.715913,1.7949352 -0.936979,0 -1.704624,-0.7224896 -1.704624,-1.7949352 z"
         style="font-style:normal;font-variant:normal;font-weight:normal;font-stretch:normal;font-size:11.2889px;font-family:'Museo Sans Rounded';-inkscape-font-specification:'Museo Sans Rounded';fill:#ffffff;fill-opacity:1;stroke:#000000;stroke-width:0.265;stroke-linecap:round;stroke-linejoin:round;stroke-miterlimit:4;stroke-dasharray:none;stroke-opacity:1"
         id="path838" />
      <path
         d="m 25.605323,4.1976477 c 0,0.3160892 0.158044,0.4741338 0.462845,0.4741338 h 0.496711 c 0.304801,0 0.462845,-0.1580446 0.462845,-0.4741338 V 2.0866234 c 0,-0.9595566 0.474134,-1.99813541 1.490135,-1.99813541 0.677334,0 0.767645,0.53057832 0.767645,1.15146781 v 2.9576919 c 0,0.3160892 0.169334,0.4741338 0.474134,0.4741338 h 0.496712 c 0.3048,0 0.462845,-0.1580446 0.462845,-0.4741338 V 2.0866234 c 0,-1.0047122 0.496711,-1.99813541 1.467557,-1.99813541 0.666045,0 0.790223,0.49671161 0.790223,1.15146781 v 2.9576919 c 0,0.3160892 0.158044,0.4741338 0.474134,0.4741338 h 0.485422 c 0.304801,0 0.474134,-0.1580446 0.474134,-0.4741338 V 0.96902222 c 0,-1.51271265 -0.688623,-2.19004672 -1.885246,-2.19004672 -0.903112,0 -1.659469,0.58702286 -1.964269,1.18533458 h -0.02258 c -0.237067,-0.77893412 -0.812801,-1.18533458 -1.682046,-1.18533458 -0.903112,0 -1.603024,0.65475627 -1.885246,1.21920128 h -0.02258 c 0,0 0.02258,-0.1354668 0.02258,-0.2596447 v -0.34995592 c 0,-0.30480031 -0.158045,-0.47413386 -0.462845,-0.47413386 h -0.440267 c -0.304801,0 -0.462845,0.16933355 -0.462845,0.47413386 z"
         style="font-style:normal;font-variant:normal;font-weight:normal;font-stretch:normal;font-size:11.2889px;font-family:'Museo Sans Rounded';-inkscape-font-specification:'Museo Sans Rounded';fill:#ffffff;fill-opacity:1;stroke:#000000;stroke-width:0.265;stroke-linecap:round;stroke-linejoin:round;stroke-miterlimit:4;stroke-dasharray:none;stroke-opacity:1"
         id="path840" />
      <path
         d="m 35.742742,6.4554278 c 0,0.3160892 0.169333,0.4741338 0.474133,0.4741338 h 0.485423 c 0.316089,0 0.474134,-0.1580446 0.474134,-0.4741338 V 4.4234257 c 0,-0.2935114 -0.03387,-0.4967116 -0.03387,-0.4967116 h 0.02258 c 0,0 0.462845,0.8805342 1.659468,0.8805342 1.512713,0 2.641603,-1.1853345 2.641603,-3.0141364 0,-1.78364622 -1.004712,-3.0141364 -2.56258,-3.0141364 -1.343379,0 -1.85138,1.01600108 -1.85138,1.01600108 h -0.02258 c 0,0 0.01129,-0.10160011 0.01129,-0.22577801 v -0.25964471 c 0,-0.22577801 -0.158044,-0.39511156 -0.462845,-0.39511156 h -0.361245 c -0.3048,0 -0.474133,0.16933355 -0.474133,0.47413386 z m 1.388534,-4.6284492 c 0,-1.2756457 0.711201,-1.81751292 1.456268,-1.81751292 0.835379,0 1.422402,0.71120073 1.422402,1.80622402 0,1.140179 -0.654756,1.7836463 -1.444979,1.7836463 -0.936979,0 -1.433691,-0.8805342 -1.433691,-1.7723574 z"
         style="font-style:normal;font-variant:normal;font-weight:normal;font-stretch:normal;font-size:11.2889px;font-family:'Museo Sans Rounded';-inkscape-font-specification:'Museo Sans Rounded';fill:#ffffff;fill-opacity:1;stroke:#000000;stroke-width:0.265;stroke-linecap:round;stroke-linejoin:round;stroke-miterlimit:4;stroke-dasharray:none;stroke-opacity:1"
         id="path842" />
      <path
         d="m 42.188689,1.7931119 c 0,1.7723574 1.411112,3.0141364 3.160892,3.0141364 1.749779,0 3.172181,-1.241779 3.172181,-3.0141364 0,-1.76106841 -1.422402,-3.0141364 -3.172181,-3.0141364 -1.74978,0 -3.160892,1.25306799 -3.160892,3.0141364 z m 1.456268,0 c 0,-1.06115659 0.767645,-1.79493512 1.704624,-1.79493512 0.936978,0 1.715913,0.73377853 1.715913,1.79493512 0,1.0724456 -0.778935,1.7949352 -1.715913,1.7949352 -0.936979,0 -1.704624,-0.7224896 -1.704624,-1.7949352 z"
         style="font-style:normal;font-variant:normal;font-weight:normal;font-stretch:normal;font-size:11.2889px;font-family:'Museo Sans Rounded';-inkscape-font-specification:'Museo Sans Rounded';fill:#ffffff;fill-opacity:1;stroke:#000000;stroke-width:0.265;stroke-linecap:round;stroke-linejoin:round;stroke-miterlimit:4;stroke-dasharray:none;stroke-opacity:1"
         id="path844" />
      <path
         d="m 49.571628,4.1976477 c 0,0.3160892 0.158044,0.4741338 0.462845,0.4741338 h 0.496711 c 0.3048,0 0.462845,-0.1580446 0.462845,-0.4741338 V 1.9737344 c 0,-1.03857888 0.643467,-1.88524641 1.659468,-1.88524641 0.72249,0 0.903112,0.47413381 0.903112,1.17404561 v 2.9351141 c 0,0.3160892 0.169334,0.4741338 0.474134,0.4741338 h 0.485423 c 0.316089,0 0.474134,-0.1580446 0.474134,-0.4741338 V 0.96902222 c 0,-1.52400155 -0.733779,-2.19004672 -2.009424,-2.19004672 -1.162757,0 -1.794936,0.73377857 -2.043291,1.21920128 h -0.02258 c 0,0 0.02258,-0.1354668 0.02258,-0.2596447 v -0.34995592 c 0,-0.30480031 -0.158045,-0.47413386 -0.462845,-0.47413386 h -0.440267 c -0.304801,0 -0.462845,0.16933355 -0.462845,0.47413386 z"
         style="font-style:normal;font-variant:normal;font-weight:normal;font-stretch:normal;font-size:11.2889px;font-family:'Museo Sans Rounded';-inkscape-font-specification:'Museo Sans Rounded';fill:#ffffff;fill-opacity:1;stroke:#000000;stroke-width:0.265;stroke-linecap:round;stroke-linejoin:round;stroke-miterlimit:4;stroke-dasharray:none;stroke-opacity:1"
         id="path846" />
      <path
         d="m 55.983711,1.7931119 c 0,1.6368906 1.185334,3.0141364 3.093159,3.0141364 0.903112,0 1.580446,-0.338667 1.952979,-0.5757339 0.248356,-0.1467557 0.293512,-0.3725337 0.158045,-0.6321784 L 61.052427,3.373558 C 60.905671,3.1139133 60.702471,3.0800466 60.420249,3.2155134 60.149315,3.3848469 59.709048,3.5880471 59.17847,3.5880471 c -0.869246,0 -1.636891,-0.5418672 -1.727202,-1.580446 h 3.510848 c 0.282222,0 0.496712,-0.237067 0.496712,-0.4854228 0,-1.58044602 -0.914401,-2.7432028 -2.551292,-2.7432028 -1.727202,0 -2.923825,1.24177909 -2.923825,3.0141364 z m 1.501424,-0.6547562 c 0.135466,-0.7676452 0.654756,-1.27564572 1.388534,-1.27564572 0.654757,0 1.140179,0.47413382 1.162757,1.27564572 z"
         style="font-style:normal;font-variant:normal;font-weight:normal;font-stretch:normal;font-size:11.2889px;font-family:'Museo Sans Rounded';-inkscape-font-specification:'Museo Sans Rounded';fill:#ffffff;fill-opacity:1;stroke:#000000;stroke-width:0.265;stroke-linecap:round;stroke-linejoin:round;stroke-miterlimit:4;stroke-dasharray:none;stroke-opacity:1"
         id="path848" />
      <path
         d="m 62.497401,4.1976477 c 0,0.3160892 0.158045,0.4741338 0.462845,0.4741338 h 0.496712 c 0.3048,0 0.462845,-0.1580446 0.462845,-0.4741338 V 1.9737344 c 0,-1.03857888 0.643467,-1.88524641 1.659468,-1.88524641 0.72249,0 0.903112,0.47413381 0.903112,1.17404561 v 2.9351141 c 0,0.3160892 0.169334,0.4741338 0.474134,0.4741338 h 0.485423 c 0.316089,0 0.474133,-0.1580446 0.474133,-0.4741338 V 0.96902222 c 0,-1.52400155 -0.733778,-2.19004672 -2.009424,-2.19004672 -1.162757,0 -1.794935,0.73377857 -2.043291,1.21920128 h -0.02258 c 0,0 0.02258,-0.1354668 0.02258,-0.2596447 v -0.34995592 c 0,-0.30480031 -0.158044,-0.47413386 -0.462845,-0.47413386 h -0.440267 c -0.3048,0 -0.462845,0.16933355 -0.462845,0.47413386 z"
         style="font-style:normal;font-variant:normal;font-weight:normal;font-stretch:normal;font-size:11.2889px;font-family:'Museo Sans Rounded';-inkscape-font-specification:'Museo Sans Rounded';fill:#ffffff;fill-opacity:1;stroke:#000000;stroke-width:0.265;stroke-linecap:round;stroke-linejoin:round;stroke-miterlimit:4;stroke-dasharray:none;stroke-opacity:1"
         id="path850" />
      <path
         d="m 69.519076,2.6172017 c 0,1.5578682 1.219201,2.1110243 2.246491,2.1110243 0.395112,0 0.587023,-0.1354668 0.587023,-0.4741338 V 3.9041363 c 0,-0.3160892 -0.124178,-0.4289782 -0.474134,-0.4628449 -0.395111,-0.045156 -0.92569,-0.2144891 -0.92569,-1.0724455 V 0.13364359 h 0.846668 c 0.293511,0 0.462845,-0.15804461 0.462845,-0.47413382 v -0.1919113 c 0,-0.30480031 -0.169334,-0.47413377 -0.474134,-0.47413377 H 70.952766 V -2.180581 c 0,-0.3048003 -0.169333,-0.4741338 -0.474134,-0.4741338 h -0.451556 c -0.3048,0 -0.474133,0.1693335 -0.474133,0.4741338 v 1.1740457 h -0.327378 c -0.31609,0 -0.474134,0.16933346 -0.474134,0.47413377 v 0.1919113 c 0,0.31608921 0.158044,0.47413382 0.462845,0.47413382 h 0.3048 z"
         style="font-style:normal;font-variant:normal;font-weight:normal;font-stretch:normal;font-size:11.2889px;font-family:'Museo Sans Rounded';-inkscape-font-specification:'Museo Sans Rounded';fill:#ffffff;fill-opacity:1;stroke:#000000;stroke-width:0.265;stroke-linecap:round;stroke-linejoin:round;stroke-miterlimit:4;stroke-dasharray:none;stroke-opacity:1"
         id="path852" />
    </g>
    <g
       aria-label="&lt;"
       id="text836"
       style="font-style:normal;font-variant:normal;font-weight:normal;font-stretch:normal;font-size:12.7px;line-height:1.25;font-family:'Museo Sans Rounded';-inkscape-font-specification:'Museo Sans Rounded';fill:#000000;fill-opacity:1;stroke:none;stroke-width:0.264583">
      <path
         d="m 4.8436774,2.3901783 5.0926999,2.2733 c 0.3682997,0.1524 0.6222997,0 0.6222997,-0.4064 v -0.2921 c 0,-0.3048 -0.1397,-0.4953 -0.4191,-0.6096 l -3.9877996,-1.651 v -0.0254 L 10.139577,0.02797837 c 0.2794,-0.1143 0.4191,-0.3048 0.4191,-0.60959999 v -0.2921 c 0,-0.39369998 -0.254,-0.55879998 -0.6222997,-0.39369998 L 4.8436774,0.99317835 c -0.2794,0.12700005 -0.3937,0.31749995 -0.3937,0.62229995 v 0.1524 c 0,0.3175 0.1143,0.508 0.3937,0.6223 z"
         style="font-style:normal;font-variant:normal;font-weight:normal;font-stretch:normal;font-size:12.7px;font-family:'Museo Sans Rounded';-inkscape-font-specification:'Museo Sans Rounded';fill:#af40b8;fill-opacity:1;stroke-width:0.264583"
         id="path855" />
    </g>
    <g
       aria-label="&gt;"
       id="text840"
       style="font-style:normal;font-variant:normal;font-weight:normal;font-stretch:normal;font-size:12.7px;line-height:1.25;font-family:'Museo Sans Rounded';-inkscape-font-specification:'Museo Sans Rounded';fill:#af40b8;fill-opacity:1;stroke:none;stroke-width:0.264583">
      <path
         d="m 74.653831,4.3142806 c 0,0.3937 0.2413,0.5588 0.6096,0.3937 l 5.0927,-2.2605999 c 0.2794,-0.1143 0.4064,-0.3048 0.4064,-0.6223 v -0.1524 c 0,-0.3048 -0.127,-0.4953 -0.4064,-0.6223 l -5.0927,-2.2606 c -0.3683,-0.1651 -0.6096,0 -0.6096,0.39370002 v 0.2921 c 0,0.30479999 0.127,0.49529999 0.4064,0.60959999 l 3.9878,1.65099999 v 0.0254 l -3.9878,1.651 c -0.2794,0.1143 -0.4064,0.3048 -0.4064,0.6095999 z"
         style="font-style:normal;font-variant:normal;font-weight:normal;font-stretch:normal;font-size:12.7px;font-family:'Museo Sans Rounded';-inkscape-font-specification:'Museo Sans Rounded';fill:#af40b8;fill-opacity:1;stroke-width:0.264583"
         id="path858" />
    </g>
  </g>
</svg>
