<?xml version="1.0" encoding="UTF-8" standalone="no"?>
<svg
   xmlns:dc="http://purl.org/dc/elements/1.1/"
   xmlns:cc="http://creativecommons.org/ns#"
   xmlns:rdf="http://www.w3.org/1999/02/22-rdf-syntax-ns#"
   xmlns:svg="http://www.w3.org/2000/svg"
   xmlns="http://www.w3.org/2000/svg"
   xmlns:sodipodi="http://sodipodi.sourceforge.net/DTD/sodipodi-0.dtd"
   xmlns:inkscape="http://www.inkscape.org/namespaces/inkscape"
   width="128.75925mm"
   height="17.037504mm"
   viewBox="0 0 128.75924 17.037504"
   version="1.1"
   id="svg8"
   inkscape:version="1.0.1 (3bc2e813f5, 2020-09-07)"
   sodipodi:docname="logo.svg">
  <defs
     id="defs2" />
  <sodipodi:namedview
     id="base"
     pagecolor="#ffffff"
     bordercolor="#666666"
     borderopacity="1.0"
     inkscape:pageopacity="0.0"
     inkscape:pageshadow="2"
     inkscape:zoom="1.979899"
     inkscape:cx="316.16561"
     inkscape:cy="18.674818"
     inkscape:document-units="mm"
     inkscape:current-layer="layer1"
     inkscape:document-rotation="0"
     showgrid="false"
     inkscape:window-width="1920"
     inkscape:window-height="963"
     inkscape:window-x="0"
     inkscape:window-y="28"
     inkscape:window-maximized="1" />
  <metadata
     id="metadata5">
    <rdf:RDF>
      <cc:Work
         rdf:about="">
        <dc:format>image/svg+xml</dc:format>
        <dc:type
           rdf:resource="http://purl.org/dc/dcmitype/StillImage" />
        <dc:title />
      </cc:Work>
    </rdf:RDF>
  </metadata>
  <g
     inkscape:label="Layer 1"
     inkscape:groupmode="layer"
     id="layer1"
     transform="translate(-0.93215175,5.8189623)">
    <g
       aria-label="component"
       id="text12"
       style="font-style:normal;font-variant:normal;font-weight:normal;font-stretch:normal;font-size:19.7556px;line-height:1.25;font-family:'Museo Sans Rounded';-inkscape-font-specification:'Museo Sans Rounded';fill:#ffffff;fill-opacity:1;stroke:#000000;stroke-width:0.265;stroke-linecap:round;stroke-linejoin:round;stroke-miterlimit:4;stroke-dasharray:none;stroke-opacity:1">
      <path
         d="m 12.565345,2.097244 c 0,2.9238288 2.133604,5.2747452 5.472301,5.2747452 1.738493,0 2.96334,-0.7112016 3.575763,-1.1655804 0.395112,-0.2765784 0.454379,-0.6716904 0.217312,-1.1063136 L 21.633165,4.7247388 C 21.376342,4.2506044 21.000986,4.1913376 20.507096,4.467916 c -0.474135,0.3358452 -1.264359,0.7704684 -2.252139,0.7704684 -1.936048,0 -3.14114,-1.4619144 -3.14114,-3.160896 0,-1.71873716 1.205092,-3.1213848 3.062118,-3.1213848 0.869246,0 1.540937,0.33584524 1.955804,0.61242364 0.474135,0.2370672 0.80998,0.2370672 1.106314,-0.2173116 l 0.256823,-0.39511204 c 0.276578,-0.4346232 0.256823,-0.8494908 -0.158045,-1.1260692 -0.592668,-0.4148676 -1.679226,-1.0075356 -3.299185,-1.0075356 -3.338697,0 -5.472301,2.41018324 -5.472301,5.2747452 z"
         style="font-style:normal;font-variant:normal;font-weight:normal;font-stretch:normal;font-size:19.7556px;font-family:'Museo Sans Rounded';-inkscape-font-specification:'Museo Sans Rounded';fill:#ffffff;fill-opacity:1;stroke:#000000;stroke-width:0.265;stroke-linecap:round;stroke-linejoin:round;stroke-miterlimit:4;stroke-dasharray:none;stroke-opacity:1"
         id="path839" />
      <path
         d="m 22.917245,2.097244 c 0,3.1016292 2.46945,5.2747452 5.531568,5.2747452 3.062118,0 5.551323,-2.173116 5.551323,-5.2747452 0,-3.08187356 -2.489205,-5.2747452 -5.551323,-5.2747452 -3.062118,0 -5.531568,2.19287164 -5.531568,5.2747452 z m 2.548472,0 c 0,-1.85702636 1.343381,-3.1411404 2.983096,-3.1411404 1.639714,0 3.002851,1.28411404 3.002851,3.1411404 0,1.876782 -1.363137,3.1411404 -3.002851,3.1411404 -1.639715,0 -2.983096,-1.2643584 -2.983096,-3.1411404 z"
         style="font-style:normal;font-variant:normal;font-weight:normal;font-stretch:normal;font-size:19.7556px;font-family:'Museo Sans Rounded';-inkscape-font-specification:'Museo Sans Rounded';fill:#ffffff;fill-opacity:1;stroke:#000000;stroke-width:0.265;stroke-linecap:round;stroke-linejoin:round;stroke-miterlimit:4;stroke-dasharray:none;stroke-opacity:1"
         id="path841" />
      <path
         d="m 35.837401,6.3051868 c 0,0.5531568 0.276578,0.8297352 0.80998,0.8297352 h 0.869246 c 0.533401,0 0.80998,-0.2765784 0.80998,-0.8297352 V 2.6108896 c 0,-1.67922596 0.829735,-3.49674116 2.607739,-3.49674116 1.185336,0 1.343381,0.9285132 1.343381,2.01507116 v 5.1759672 c 0,0.5531568 0.296334,0.8297352 0.829735,0.8297352 h 0.869246 c 0.533401,0 0.80998,-0.2765784 0.80998,-0.8297352 V 2.6108896 c 0,-1.75824836 0.869246,-3.49674116 2.568228,-3.49674116 1.16558,0 1.382892,0.8692464 1.382892,2.01507116 v 5.1759672 c 0,0.5531568 0.276578,0.8297352 0.829735,0.8297352 h 0.849491 c 0.533401,0 0.829735,-0.2765784 0.829735,-0.8297352 V 0.65508524 c 0,-2.64725044 -1.205092,-3.83258644 -3.299185,-3.83258644 -1.580448,0 -2.904073,1.0272912 -3.437475,2.074338 h -0.03951 c -0.414867,-1.3631364 -1.422403,-2.074338 -2.943584,-2.074338 -1.580448,0 -2.805295,1.1458248 -3.299185,2.1336048 h -0.03951 c 0,0 0.03951,-0.2370672 0.03951,-0.4543788 v -0.6124236 c 0,-0.5334012 -0.276579,-0.8297352 -0.80998,-0.8297352 h -0.770468 c -0.533402,0 -0.80998,0.296334 -0.80998,0.8297352 z"
         style="font-style:normal;font-variant:normal;font-weight:normal;font-stretch:normal;font-size:19.7556px;font-family:'Museo Sans Rounded';-inkscape-font-specification:'Museo Sans Rounded';fill:#ffffff;fill-opacity:1;stroke:#000000;stroke-width:0.265;stroke-linecap:round;stroke-linejoin:round;stroke-miterlimit:4;stroke-dasharray:none;stroke-opacity:1"
         id="path843" />
      <path
         d="m 53.577906,10.256307 c 0,0.553157 0.296334,0.829735 0.829735,0.829735 h 0.849491 c 0.553157,0 0.829735,-0.276578 0.829735,-0.829735 V 6.7002988 c 0,-0.5136456 -0.05927,-0.8692464 -0.05927,-0.8692464 h 0.03951 c 0,0 0.809979,1.5409368 2.904073,1.5409368 2.64725,0 4.62281,-2.074338 4.62281,-5.2747452 0,-3.1213848 -1.758248,-5.2747452 -4.484521,-5.2747452 -2.350916,0 -3.239918,1.778004 -3.239918,1.778004 h -0.03951 c 0,0 0.01976,-0.1778004 0.01976,-0.395112 V -2.248988 c 0,-0.395112 -0.276578,-0.691446 -0.809979,-0.691446 h -0.63218 c -0.533401,0 -0.829735,0.296334 -0.829735,0.8297352 z m 2.429939,-8.0997962 c 0,-2.23238276 1.244603,-3.1806516 2.548472,-3.1806516 1.461915,0 2.489206,1.24460284 2.489206,3.160896 0,1.9953156 -1.145825,3.1213848 -2.528717,3.1213848 -1.639715,0 -2.508961,-1.5409368 -2.508961,-3.1016292 z"
         style="font-style:normal;font-variant:normal;font-weight:normal;font-stretch:normal;font-size:19.7556px;font-family:'Museo Sans Rounded';-inkscape-font-specification:'Museo Sans Rounded';fill:#ffffff;fill-opacity:1;stroke:#000000;stroke-width:0.265;stroke-linecap:round;stroke-linejoin:round;stroke-miterlimit:4;stroke-dasharray:none;stroke-opacity:1"
         id="path845" />
      <path
         d="m 64.858329,2.097244 c 0,3.1016292 2.46945,5.2747452 5.531568,5.2747452 3.062118,0 5.551323,-2.173116 5.551323,-5.2747452 0,-3.08187356 -2.489205,-5.2747452 -5.551323,-5.2747452 -3.062118,0 -5.531568,2.19287164 -5.531568,5.2747452 z m 2.548472,0 c 0,-1.85702636 1.343381,-3.1411404 2.983096,-3.1411404 1.639714,0 3.002851,1.28411404 3.002851,3.1411404 0,1.876782 -1.363137,3.1411404 -3.002851,3.1411404 -1.639715,0 -2.983096,-1.2643584 -2.983096,-3.1411404 z"
         style="font-style:normal;font-variant:normal;font-weight:normal;font-stretch:normal;font-size:19.7556px;font-family:'Museo Sans Rounded';-inkscape-font-specification:'Museo Sans Rounded';fill:#ffffff;fill-opacity:1;stroke:#000000;stroke-width:0.265;stroke-linecap:round;stroke-linejoin:round;stroke-miterlimit:4;stroke-dasharray:none;stroke-opacity:1"
         id="path847" />
      <path
         d="m 77.778487,6.3051868 c 0,0.5531568 0.276578,0.8297352 0.809979,0.8297352 h 0.869247 c 0.533401,0 0.809979,-0.2765784 0.809979,-0.8297352 V 2.4133336 c 0,-1.81751516 1.12607,-3.29918516 2.904074,-3.29918516 1.264358,0 1.580448,0.8297352 1.580448,2.05458236 v 5.136456 c 0,0.5531568 0.296334,0.8297352 0.829735,0.8297352 h 0.849491 c 0.553156,0 0.829735,-0.2765784 0.829735,-0.8297352 V 0.65508524 c 0,-2.66700604 -1.284114,-3.83258644 -3.516497,-3.83258644 -2.034827,0 -3.14114,1.284114 -3.575764,2.1336048 h -0.03951 c 0,0 0.03951,-0.2370672 0.03951,-0.4543788 v -0.6124236 c 0,-0.5334012 -0.276578,-0.8297352 -0.809979,-0.8297352 h -0.770469 c -0.533401,0 -0.809979,0.296334 -0.809979,0.8297352 z"
         style="font-style:normal;font-variant:normal;font-weight:normal;font-stretch:normal;font-size:19.7556px;font-family:'Museo Sans Rounded';-inkscape-font-specification:'Museo Sans Rounded';fill:#ffffff;fill-opacity:1;stroke:#000000;stroke-width:0.265;stroke-linecap:round;stroke-linejoin:round;stroke-miterlimit:4;stroke-dasharray:none;stroke-opacity:1"
         id="path849" />
      <path
         d="m 88.999651,2.097244 c 0,2.864562 2.074338,5.2747452 5.413034,5.2747452 1.580448,0 2.765784,-0.592668 3.417719,-1.0075356 C 98.265027,6.1076308 98.34405,5.7125188 98.106982,5.25814 L 97.869915,4.863028 C 97.613092,4.4086492 97.257492,4.3493824 96.763602,4.5864496 c -0.474135,0.296334 -1.244603,0.6519348 -2.173116,0.6519348 -1.521182,0 -2.864562,-0.9482688 -3.022607,-2.765784 h 6.143991 c 0.49389,0 0.869247,-0.4148676 0.869247,-0.8494908 0,-2.765784 -1.600204,-4.8006108 -4.464766,-4.8006108 -3.022607,0 -5.1167,2.173116 -5.1167,5.2747452 z m 2.627495,-1.14582476 c 0.237067,-1.3433808 1.145824,-2.23238284 2.429938,-2.23238284 1.145825,0 1.995316,0.82973524 2.034827,2.23238284 z"
         style="font-style:normal;font-variant:normal;font-weight:normal;font-stretch:normal;font-size:19.7556px;font-family:'Museo Sans Rounded';-inkscape-font-specification:'Museo Sans Rounded';fill:#ffffff;fill-opacity:1;stroke:#000000;stroke-width:0.265;stroke-linecap:round;stroke-linejoin:round;stroke-miterlimit:4;stroke-dasharray:none;stroke-opacity:1"
         id="path851" />
      <path
         d="m 100.39862,6.3051868 c 0,0.5531568 0.27658,0.8297352 0.80998,0.8297352 h 0.86925 c 0.5334,0 0.80997,-0.2765784 0.80997,-0.8297352 V 2.4133336 c 0,-1.81751516 1.12607,-3.29918516 2.90408,-3.29918516 1.26436,0 1.58045,0.8297352 1.58045,2.05458236 v 5.136456 c 0,0.5531568 0.29633,0.8297352 0.82973,0.8297352 h 0.84949 c 0.55316,0 0.82974,-0.2765784 0.82974,-0.8297352 V 0.65508524 c 0,-2.66700604 -1.28412,-3.83258644 -3.5165,-3.83258644 -2.03483,0 -3.14114,1.284114 -3.57576,2.1336048 h -0.0395 c 0,0 0.0395,-0.2370672 0.0395,-0.4543788 v -0.6124236 c 0,-0.5334012 -0.27658,-0.8297352 -0.80998,-0.8297352 h -0.77047 c -0.5334,0 -0.80998,0.296334 -0.80998,0.8297352 z"
         style="font-style:normal;font-variant:normal;font-weight:normal;font-stretch:normal;font-size:19.7556px;font-family:'Museo Sans Rounded';-inkscape-font-specification:'Museo Sans Rounded';fill:#ffffff;fill-opacity:1;stroke:#000000;stroke-width:0.265;stroke-linecap:round;stroke-linejoin:round;stroke-miterlimit:4;stroke-dasharray:none;stroke-opacity:1"
         id="path853" />
      <path
         d="m 112.68656,3.5394028 c 0,2.7262728 2.13361,3.6942972 3.93137,3.6942972 0.69144,0 1.02729,-0.2370672 1.02729,-0.8297352 V 5.7915412 c 0,-0.5531568 -0.21731,-0.7507128 -0.82974,-0.8099796 -0.69144,-0.079022 -1.61996,-0.3753564 -1.61996,-1.876782 v -3.91160876 h 1.48167 c 0.51365,0 0.80998,-0.27657844 0.80998,-0.82973524 v -0.3358452 c 0,-0.5334012 -0.29633,-0.8297352 -0.82973,-0.8297352 h -1.46192 v -2.0545824 c 0,-0.5334012 -0.29633,-0.8297352 -0.82973,-0.8297352 h -0.79022 c -0.53341,0 -0.82974,0.296334 -0.82974,0.8297352 v 2.0545824 h -0.57291 c -0.55316,0 -0.82974,0.296334 -0.82974,0.8297352 v 0.3358452 c 0,0.5531568 0.27658,0.82973524 0.80998,0.82973524 h 0.5334 z"
         style="font-style:normal;font-variant:normal;font-weight:normal;font-stretch:normal;font-size:19.7556px;font-family:'Museo Sans Rounded';-inkscape-font-specification:'Museo Sans Rounded';fill:#ffffff;fill-opacity:1;stroke:#000000;stroke-width:0.265;stroke-linecap:round;stroke-linejoin:round;stroke-miterlimit:4;stroke-dasharray:none;stroke-opacity:1"
         id="path855" />
    </g>
    <g
       aria-label="&lt;"
       id="text836"
       style="font-style:normal;font-variant:normal;font-weight:normal;font-stretch:normal;font-size:19.7556px;line-height:1.25;font-family:'Museo Sans Rounded';-inkscape-font-specification:'Museo Sans Rounded';fill:#000000;fill-opacity:1;stroke:none;stroke-width:0.264583">
      <path
         d="m 1.5445753,2.6156957 7.9219956,3.5362524 c 0.5729121,0.2370672 0.9680241,0 0.9680241,-0.6321792 V 5.0653901 c 0,-0.4741344 -0.217311,-0.7704684 -0.6519345,-0.9482688 L 3.5794021,1.5488933 v -0.039511 l 6.2032584,-2.568228 c 0.4346235,-0.1778004 0.6519345,-0.4741344 0.6519345,-0.9482688 v -0.4543788 c 0,-0.6124236 -0.395112,-0.8692464 -0.9680241,-0.6124236 L 1.5445753,0.44257968 c -0.4346232,0.197556 -0.61242355,0.49389 -0.61242355,0.96802442 v 0.2370672 c 0,0.49389 0.17780035,0.790224 0.61242355,0.9680244 z"
         style="font-style:normal;font-variant:normal;font-weight:normal;font-stretch:normal;font-size:19.7556px;font-family:'Museo Sans Rounded';-inkscape-font-specification:'Museo Sans Rounded';stroke-width:0.264583;fill:#af40b8;fill-opacity:1"
         id="path836" />
    </g>
    <g
       aria-label="&gt;"
       id="text840"
       style="font-style:normal;font-variant:normal;font-weight:normal;font-stretch:normal;font-size:19.7556px;line-height:1.25;font-family:'Museo Sans Rounded';-inkscape-font-specification:'Museo Sans Rounded';fill:#af40b8;fill-opacity:1;stroke:none;stroke-width:0.264583">
      <path
         d="m 120.18895,5.570964 c 0,0.6124236 0.37536,0.8692464 0.94827,0.6124236 l 7.922,-3.5164968 c 0.43462,-0.1778004 0.63218,-0.4741344 0.63218,-0.9680244 V 1.4617992 c 0,-0.47413437 -0.19756,-0.77046837 -0.63218,-0.96802437 l -7.922,-3.51649683 c -0.57291,-0.2568228 -0.94827,0 -0.94827,0.6124236 v 0.4543788 c 0,0.4741344 0.19756,0.7704684 0.63218,0.9482688 l 6.20326,2.568228 v 0.039511 l -6.20326,2.568228 c -0.43462,0.1778004 -0.63218,0.4741344 -0.63218,0.9482688 z"
         style="font-style:normal;font-variant:normal;font-weight:normal;font-stretch:normal;font-size:19.7556px;font-family:'Museo Sans Rounded';-inkscape-font-specification:'Museo Sans Rounded';stroke-width:0.264583;fill:#af40b8;fill-opacity:1"
         id="path858" />
    </g>
  </g>
</svg>
